<svg width="114" height="121" viewBox="0 0 114 121" fill="none" xmlns="http://www.w3.org/2000/svg">
<path d="M6.63996 7.66184C8.76823 7.66184 10.4935 5.94668 10.4935 3.83092C10.4935 1.71516 8.76823 0 6.63996 0C4.51168 0 2.78638 1.71516 2.78638 3.83092C2.78638 5.94668 4.51168 7.66184 6.63996 7.66184Z" fill="#E8D11F"/>
<path d="M28.5012 0.247192C24.1774 0.247192 19.9508 1.52179 16.3557 3.90981C12.7606 6.29783 9.95862 9.69201 8.30399 13.6631C6.64936 17.6343 6.21644 22.004 7.05996 26.2197C7.90348 30.4355 9.98556 34.3079 13.0429 37.3472C16.1003 40.3866 19.9956 42.4564 24.2362 43.295C28.4769 44.1336 32.8725 43.7032 36.8671 42.0583C40.8617 40.4134 44.276 37.6279 46.6781 34.0539C49.0803 30.48 50.3624 26.2782 50.3624 21.9799C50.3624 16.216 48.0592 10.6882 43.9594 6.61255C39.8596 2.53688 34.2991 0.247192 28.5012 0.247192ZM28.5012 34.4783C26.0148 34.4775 23.5844 33.7437 21.5175 32.3699C19.4505 30.996 17.8398 29.0437 16.8889 26.7599C15.9379 24.476 15.6896 21.9631 16.1752 19.539C16.6608 17.1148 17.8585 14.8882 19.617 13.1407C21.3754 11.3931 23.6156 10.2032 26.0543 9.7213C28.493 9.23939 31.0206 9.48715 33.3177 10.4333C35.6147 11.3794 37.578 12.9813 38.9593 15.0366C40.3406 17.0918 41.0778 19.5081 41.0778 21.9799C41.0778 23.6216 40.7525 25.2472 40.1204 26.7638C39.4883 28.2805 38.5618 29.6585 37.3939 30.8191C36.226 31.9798 34.8396 32.9003 33.3137 33.5282C31.7879 34.156 30.1525 34.4789 28.5012 34.4783Z" fill="white"/>
<path d="M28.6426 28.8151C27.1988 28.8151 25.8141 28.2449 24.7932 27.23C23.7723 26.2151 23.1987 24.8385 23.1987 23.4032C23.1987 23.3734 23.1987 23.3436 23.1987 23.318H34.0865C34.0865 23.3436 34.0865 23.3734 34.0865 23.4032C34.0865 24.8385 33.5129 26.2151 32.492 27.23C31.4711 28.2449 30.0864 28.8151 28.6426 28.8151Z" fill="#E8D11F"/>
<path d="M21.3555 23.6247C21.76 23.6247 22.1555 23.5054 22.4919 23.2819C22.8282 23.0583 23.0903 22.7406 23.2449 22.369C23.3995 21.9973 23.4398 21.5884 23.3605 21.194C23.2813 20.7996 23.0861 20.4374 22.7997 20.1533C22.5134 19.8692 22.1486 19.6759 21.7517 19.598C21.3548 19.52 20.9436 19.5609 20.57 19.7154C20.1965 19.8699 19.8775 20.1311 19.6533 20.4659C19.4291 20.8007 19.3099 21.1942 19.3108 21.5964C19.3119 22.1347 19.5279 22.6506 19.9112 23.0309C20.2945 23.4112 20.8139 23.6247 21.3555 23.6247Z" fill="#E8D11F"/>
<path d="M35.6509 23.6247C36.0555 23.6247 36.4509 23.5054 36.7873 23.2819C37.1236 23.0583 37.3857 22.7406 37.5403 22.369C37.6949 21.9973 37.7352 21.5884 37.6559 21.194C37.5767 20.7996 37.3815 20.4374 37.0952 20.1533C36.8088 19.8692 36.444 19.6759 36.0471 19.598C35.6502 19.52 35.239 19.5609 34.8654 19.7154C34.4919 19.8699 34.1729 20.1311 33.9487 20.4659C33.7246 20.8007 33.6054 21.1942 33.6062 21.5964C33.6062 21.8631 33.6591 22.1272 33.7619 22.3736C33.8647 22.6199 34.0154 22.8437 34.2053 23.0321C34.3953 23.2206 34.6207 23.3699 34.8687 23.4716C35.1168 23.5732 35.3826 23.6253 35.6509 23.6247Z" fill="#E8D11F"/>
<path d="M55.1247 68.4495L44.6013 50.3346C43.9846 49.2734 43.1006 48.3901 42.0364 47.7714C40.9722 47.1528 39.7643 46.8202 38.5315 46.8063H38.1715C36.9383 46.8207 35.73 47.1535 34.6652 47.772C33.6004 48.3906 32.7155 49.2737 32.0975 50.3346L32.0546 50.4114C31.6339 51.1352 31.029 51.7362 30.3006 52.154C29.5723 52.5719 28.7462 52.7918 27.9053 52.7918C27.0644 52.7918 26.2382 52.5719 25.5099 52.154C24.7816 51.7362 24.1767 51.1352 23.7559 50.4114C23.2676 49.5689 22.6079 48.837 21.8188 48.2625C21.0298 47.688 20.1289 47.2834 19.1736 47.0747H19.0965C18.9207 47.0406 18.745 47.0066 18.5692 46.9853L18.3463 46.9597C18.2092 46.9597 18.0763 46.9341 17.9391 46.9299C17.8019 46.9256 17.7248 46.9299 17.6176 46.9299C17.5105 46.9299 17.4076 46.9299 17.3004 46.9299C17.1933 46.9299 17.0347 46.9299 16.9018 46.9554L16.6532 46.9853C16.4946 46.9853 16.3402 47.0364 16.1859 47.0662L16.0102 47.1046C15.8259 47.1472 15.6415 47.1983 15.4615 47.258L15.3758 47.2835C14.2849 47.6459 13.3012 48.271 12.5124 49.1031L12.4266 49.1926C12.3495 49.2736 12.2852 49.3588 12.2123 49.444C12.1395 49.5293 12.0323 49.6614 11.9466 49.7722L11.9166 49.819C11.7622 50.0321 11.6208 50.2452 11.4879 50.4838L0.938776 68.5731C0.0473088 70.167 -0.177411 72.0456 0.31319 73.8028C0.803792 75.5601 1.9703 77.0549 3.56058 77.964C5.15085 78.8731 7.03713 79.1236 8.81169 78.6613C10.5862 78.199 12.1065 77.0611 13.0439 75.4935L15.7573 70.8358C15.9362 70.5269 16.1938 70.2704 16.5043 70.092C16.8147 69.9136 17.1669 69.8196 17.5255 69.8196C17.884 69.8196 18.2362 69.9136 18.5467 70.092C18.8571 70.2704 19.1147 70.5269 19.2937 70.8358L21.4369 74.4878C22.132 75.6851 23.1668 76.652 24.4119 77.2674C25.657 77.8829 27.057 78.1196 28.4368 77.948C29.6781 77.9421 30.8963 77.6133 31.9701 76.9943C33.044 76.3753 33.9362 75.4877 34.5579 74.4196L36.5855 70.9211C36.7665 70.6096 37.0267 70.3509 37.3401 70.1711C37.6535 69.9913 38.009 69.8966 38.3708 69.8966C38.7326 69.8966 39.0881 69.9913 39.4015 70.1711C39.7149 70.3509 39.9751 70.6096 40.1561 70.9211L42.8266 75.519C43.2933 76.3232 43.9147 77.0281 44.6555 77.5934C45.3963 78.1587 46.2419 78.5733 47.144 78.8135C48.0461 79.0538 48.987 79.1149 49.9128 78.9934C50.8387 78.872 51.7314 78.5703 52.5399 78.1056C54.1699 77.1651 55.3577 75.6199 55.8424 73.8093C56.327 71.9988 56.0689 70.071 55.1247 68.4495Z" fill="white"/>
<path d="M66.7198 18.7497C68.0071 18.3387 69.35 18.126 70.702 18.119C71.0406 18.119 71.7008 18.1617 72.6824 18.2426C73.9549 18.4169 75.1867 18.8121 76.3216 19.4102C77.7589 20.1 79.0586 21.0428 80.1581 22.1929C81.2738 23.3515 82.162 24.7071 82.7771 26.19C83.4186 27.7502 83.7407 29.422 83.7245 31.1075V39.562C83.7321 40.3578 83.5201 41.1404 83.1115 41.8247C82.7142 42.4995 82.1507 43.0626 81.474 43.4611C80.7811 43.8603 79.9945 44.0705 79.1936 44.0705C78.3927 44.0705 77.6061 43.8603 76.9132 43.4611C76.2322 43.0653 75.6653 42.5017 75.2671 41.8247C74.8585 41.1404 74.6465 40.3578 74.6542 39.562V31.1075C74.6628 30.4084 74.479 29.7203 74.1226 29.1175C73.7745 28.5312 73.2817 28.0428 72.6909 27.6985C72.0836 27.3523 71.3957 27.1702 70.6956 27.1702C69.9955 27.1702 69.3076 27.3523 68.7002 27.6985C68.1068 28.0462 67.6114 28.5372 67.2599 29.126C66.9003 29.7247 66.7134 30.4102 66.7198 31.1075V39.562C66.729 40.3574 66.5185 41.1401 66.1111 41.8247C65.7127 42.4986 65.1494 43.0614 64.4737 43.4611C63.78 43.8602 62.9926 44.0704 62.1911 44.0704C61.3896 44.0704 60.6022 43.8602 59.9085 43.4611C59.2297 43.0639 58.6645 42.5006 58.2668 41.8247C57.8581 41.1404 57.6461 40.3578 57.6538 39.562V5.75697C57.645 4.95836 57.857 4.17267 58.2668 3.4857C58.666 2.81319 59.231 2.25295 59.9085 1.85787C60.6022 1.45872 61.3896 1.24854 62.1911 1.24854C62.9926 1.24854 63.78 1.45872 64.4737 1.85787C65.148 2.25558 65.7111 2.81532 66.1111 3.4857C66.5196 4.17302 66.7302 4.95873 66.7198 5.75697V18.7497Z" fill="black"/>
<path d="M66.7198 18.7497C68.0071 18.3387 69.35 18.126 70.702 18.119C71.0406 18.119 71.7008 18.1617 72.6824 18.2426C73.9549 18.4169 75.1867 18.8121 76.3216 19.4102C77.7589 20.1 79.0586 21.0428 80.1581 22.1929C81.2738 23.3515 82.162 24.7071 82.7771 26.19C83.4186 27.7502 83.7407 29.422 83.7245 31.1075V39.562C83.7321 40.3578 83.5201 41.1404 83.1115 41.8247C82.7142 42.4995 82.1507 43.0626 81.474 43.4611C80.7811 43.8603 79.9945 44.0705 79.1936 44.0705C78.3927 44.0705 77.6061 43.8603 76.9132 43.4611C76.2322 43.0653 75.6653 42.5017 75.2671 41.8247C74.8585 41.1404 74.6465 40.3578 74.6542 39.562V31.1075C74.6628 30.4084 74.479 29.7203 74.1226 29.1175C73.7745 28.5312 73.2817 28.0428 72.6909 27.6985C72.0836 27.3523 71.3957 27.1702 70.6956 27.1702C69.9955 27.1702 69.3076 27.3523 68.7002 27.6985C68.1068 28.0462 67.6114 28.5372 67.2599 29.126C66.9003 29.7247 66.7134 30.4102 66.7198 31.1075V39.562C66.729 40.3574 66.5185 41.1401 66.1111 41.8247C65.7127 42.4986 65.1494 43.0614 64.4737 43.4611C63.78 43.8602 62.9926 44.0704 62.1911 44.0704C61.3896 44.0704 60.6022 43.8602 59.9085 43.4611C59.2297 43.0639 58.6645 42.5006 58.2668 41.8247C57.8581 41.1404 57.6461 40.3578 57.6538 39.562V5.75697C57.645 4.95836 57.857 4.17267 58.2668 3.4857C58.666 2.81319 59.231 2.25295 59.9085 1.85787C60.6022 1.45872 61.3896 1.24854 62.1911 1.24854C62.9926 1.24854 63.78 1.45872 64.4737 1.85787C65.148 2.25558 65.7111 2.81532 66.1111 3.4857C66.5196 4.17302 66.7302 4.95873 66.7198 5.75697V18.7497Z" fill="white"/>
<path d="M78.782 48.9455C79.5828 48.9359 80.3706 49.1468 81.0582 49.5549C81.7378 49.9486 82.3046 50.5091 82.7042 51.1827C83.114 51.8681 83.3261 52.6524 83.3171 53.4497V78.8045C83.3308 80.5406 82.985 82.2609 82.3012 83.8585C80.9637 86.9702 78.4657 89.446 75.3314 90.766C73.729 91.4313 72.0098 91.7738 70.2733 91.7738C68.5368 91.7738 66.8175 91.4313 65.2152 90.766C62.0849 89.4422 59.5917 86.9652 58.2581 83.8542C57.5794 82.2627 57.2352 80.5501 57.2465 78.8216C57.2351 78.0161 57.4504 77.2235 57.8681 76.5333C58.2673 75.8608 58.8323 75.3005 59.5098 74.9054C60.2019 74.5062 60.9879 74.2959 61.7881 74.2959C62.5883 74.2959 63.3743 74.5062 64.0664 74.9054C64.743 75.3017 65.3077 75.8617 65.7081 76.5333C66.1197 77.2195 66.3319 78.0057 66.3211 78.8045C66.3144 79.5005 66.5013 80.1848 66.8612 80.7818C67.2114 81.3728 67.707 81.8655 68.3015 82.2136C68.9046 82.5653 69.5912 82.7507 70.2904 82.7507C70.9896 82.7507 71.6762 82.5653 72.2794 82.2136C72.872 81.8631 73.3671 81.3709 73.7196 80.7818C74.0764 80.1837 74.2617 79.4999 74.2554 78.8045V74.2407C71.2903 75.1888 68.0817 75.0497 65.2109 73.8486C62.0831 72.5191 59.5945 70.0375 58.2667 66.924C57.5888 65.3368 57.2446 63.6285 57.2551 61.9042V53.4497C57.2442 52.6522 57.4564 51.8673 57.8681 51.1827C58.266 50.5093 58.8313 49.9487 59.5098 49.5549C60.2019 49.1556 60.9879 48.9453 61.7881 48.9453C62.5883 48.9453 63.3743 49.1556 64.0664 49.5549C64.7439 49.9499 65.3089 50.5102 65.7081 51.1827C66.1198 51.8673 66.332 52.6522 66.3211 53.4497V61.9042C66.3144 62.6001 66.5013 63.2844 66.8612 63.8814C67.2114 64.4724 67.707 64.9651 68.3015 65.3132C68.9056 65.662 69.5918 65.8457 70.2904 65.8457C70.989 65.8457 71.6752 65.662 72.2794 65.3132C72.872 64.9628 73.3671 64.4706 73.7196 63.8814C74.0764 63.2833 74.2617 62.5995 74.2554 61.9042V53.4497C74.2465 52.6524 74.4586 51.8681 74.8684 51.1827C75.2676 50.5102 75.8326 49.9499 76.5102 49.5549C77.197 49.1488 77.9829 48.938 78.782 48.9455Z" fill="black"/>
<path d="M78.782 48.9455C79.5828 48.9359 80.3706 49.1468 81.0582 49.5549C81.7378 49.9486 82.3046 50.5091 82.7042 51.1827C83.114 51.8681 83.3261 52.6524 83.3171 53.4497V78.8045C83.3308 80.5406 82.985 82.2609 82.3012 83.8585C80.9637 86.9702 78.4657 89.446 75.3314 90.766C73.729 91.4313 72.0098 91.7738 70.2733 91.7738C68.5368 91.7738 66.8175 91.4313 65.2152 90.766C62.0849 89.4422 59.5917 86.9652 58.2581 83.8542C57.5794 82.2627 57.2352 80.5501 57.2465 78.8216C57.2351 78.0161 57.4504 77.2235 57.8681 76.5333C58.2673 75.8608 58.8323 75.3005 59.5098 74.9054C60.2019 74.5062 60.9879 74.2959 61.7881 74.2959C62.5883 74.2959 63.3743 74.5062 64.0664 74.9054C64.743 75.3017 65.3077 75.8617 65.7081 76.5333C66.1197 77.2195 66.3319 78.0057 66.3211 78.8045C66.3144 79.5005 66.5013 80.1848 66.8612 80.7818C67.2114 81.3728 67.707 81.8655 68.3015 82.2136C68.9046 82.5653 69.5912 82.7507 70.2904 82.7507C70.9896 82.7507 71.6762 82.5653 72.2794 82.2136C72.872 81.8631 73.3671 81.3709 73.7196 80.7818C74.0764 80.1837 74.2617 79.4999 74.2554 78.8045V74.2407C71.2903 75.1888 68.0817 75.0497 65.2109 73.8486C62.0831 72.5191 59.5945 70.0375 58.2667 66.924C57.5888 65.3368 57.2446 63.6285 57.2551 61.9042V53.4497C57.2442 52.6522 57.4564 51.8673 57.8681 51.1827C58.266 50.5093 58.8313 49.9487 59.5098 49.5549C60.2019 49.1556 60.9879 48.9453 61.7881 48.9453C62.5883 48.9453 63.3743 49.1556 64.0664 49.5549C64.7439 49.9499 65.3089 50.5102 65.7081 51.1827C66.1198 51.8673 66.332 52.6522 66.3211 53.4497V61.9042C66.3144 62.6001 66.5013 63.2844 66.8612 63.8814C67.2114 64.4724 67.707 64.9651 68.3015 65.3132C68.9056 65.662 69.5918 65.8457 70.2904 65.8457C70.989 65.8457 71.6752 65.662 72.2794 65.3132C72.872 64.9628 73.3671 64.4706 73.7196 63.8814C74.0764 63.2833 74.2617 62.5995 74.2554 61.9042V53.4497C74.2465 52.6524 74.4586 51.8681 74.8684 51.1827C75.2676 50.5102 75.8326 49.9499 76.5102 49.5549C77.197 49.1488 77.9829 48.938 78.782 48.9455Z" fill="white"/>
<path d="M18.3378 112.188C18.9895 112.181 19.6304 112.353 20.1895 112.686C20.7404 113.007 21.2005 113.462 21.5269 114.007C21.8527 114.568 22.0243 115.205 22.0243 115.852C22.0243 116.5 21.8527 117.136 21.5269 117.697C21.2018 118.245 20.7415 118.701 20.1895 119.023C19.63 119.354 18.9891 119.525 18.3378 119.517H4.51374C3.86099 119.526 3.21853 119.355 2.65768 119.023C2.10786 118.7 1.64924 118.244 1.32457 117.697C0.993352 117.139 0.821456 116.501 0.827332 115.852C0.826391 115.653 0.839281 115.453 0.865911 115.256C0.918061 114.977 1.00146 114.706 1.11453 114.446C1.25598 114.097 1.48746 113.594 1.81323 112.916C2.13901 112.239 2.59766 111.335 3.18492 110.181C3.77217 109.026 4.5266 107.538 5.45249 105.732C7.07851 102.573 9.40466 98.0102 12.4309 92.0444H4.51374C3.86124 92.0513 3.21931 91.8803 2.65768 91.5501C2.1086 91.2245 1.65028 90.7674 1.32457 90.2205C0.998718 89.6603 0.827148 89.0246 0.827148 88.3775C0.827148 87.7304 0.998718 87.0947 1.32457 86.5345C1.64924 85.9879 2.10786 85.532 2.65768 85.2092C3.21931 84.879 3.86124 84.708 4.51374 84.7149H18.3378C18.9888 84.7086 19.6292 84.8795 20.1895 85.2092C20.7415 85.5307 21.2018 85.9868 21.5269 86.5345C21.8596 87.0927 22.0316 87.7309 22.0242 88.3796C22.0259 88.5793 22.0116 88.7788 21.9813 88.9762C21.9262 89.251 21.8429 89.5195 21.7327 89.7774C21.5955 90.1268 21.364 90.6381 21.0383 91.3114C20.7125 91.9847 20.2538 92.8966 19.6666 94.0557C19.0793 95.2148 18.3206 96.6935 17.399 98.4917C15.773 101.662 13.4468 106.23 10.4206 112.196L18.3378 112.188Z" fill="black"/>
<path d="M31.8274 119.491C30.4103 119.501 29.0064 119.22 27.7038 118.665C25.1603 117.584 23.1359 115.567 22.0541 113.036C21.5107 111.74 21.231 110.35 21.231 108.947C21.231 107.543 21.5107 106.154 22.0541 104.858C23.1417 102.33 25.1707 100.317 27.7166 99.2417C29.0206 98.6989 30.4202 98.4194 31.8338 98.4194C33.2475 98.4194 34.6471 98.6989 35.951 99.2417C37.2131 99.7722 38.359 100.542 39.3245 101.509C40.2932 102.472 41.066 103.612 41.6007 104.867C42.1468 106.162 42.428 107.553 42.428 108.958C42.428 110.362 42.1468 111.753 41.6007 113.048C40.5137 115.578 38.4869 117.593 35.9425 118.673C34.6414 119.223 33.2409 119.501 31.8274 119.491ZM31.8274 105.749C31.2599 105.743 30.7014 105.89 30.2114 106.175C29.7291 106.457 29.3266 106.856 29.0412 107.334C28.7547 107.824 28.6038 108.38 28.6038 108.947C28.6038 109.513 28.7547 110.07 29.0412 110.56C29.3264 111.039 29.729 111.44 30.2114 111.723C30.7033 112.008 31.2624 112.158 31.8317 112.158C32.401 112.158 32.9601 112.008 33.452 111.723C33.9323 111.438 34.3331 111.038 34.6179 110.56C34.9044 110.07 35.0553 109.513 35.0553 108.947C35.0553 108.38 34.9044 107.824 34.6179 107.334C34.3275 106.856 33.9206 106.459 33.4349 106.179C32.9479 105.894 32.3925 105.745 31.8274 105.749Z" fill="black"/>
<path d="M50.0022 99.3824C51.334 98.766 52.7813 98.435 54.2501 98.4108H54.3959C55.7503 98.4069 57.0925 98.6645 58.3481 99.1693C59.6106 99.6732 60.7655 100.411 61.7516 101.343C62.7639 102.296 63.5768 103.438 64.1434 104.705C64.7403 106.046 65.04 107.499 65.0222 108.966V115.835C65.0286 116.483 64.8566 117.119 64.5249 117.676C64.2016 118.225 63.7427 118.683 63.1918 119.006C62.6283 119.33 61.9889 119.5 61.3379 119.5C60.687 119.5 60.0475 119.33 59.484 119.006C58.9328 118.682 58.4728 118.224 58.1466 117.676C57.8149 117.119 57.643 116.483 57.6494 115.835V108.958C57.6583 108.389 57.51 107.829 57.2207 107.338C56.9356 106.861 56.5348 106.463 56.0548 106.179C55.5626 105.897 55.0046 105.749 54.4366 105.749C53.8686 105.749 53.3106 105.897 52.8185 106.179C52.3359 106.462 51.9321 106.861 51.6439 107.338C51.3547 107.829 51.2064 108.389 51.2153 108.958V115.827C51.2237 116.474 51.0516 117.111 50.7181 117.668C50.3952 118.215 49.938 118.673 49.3892 118.997C48.8249 119.321 48.1848 119.492 47.5332 119.492C46.8816 119.492 46.2414 119.321 45.6771 118.997C45.1262 118.674 44.6673 118.216 44.344 117.668C44.0092 117.112 43.8356 116.475 43.8425 115.827V102.084C43.8389 101.489 43.9863 100.903 44.2711 100.38C44.5375 99.8925 44.9094 99.4704 45.3599 99.1438C45.8042 98.8224 46.313 98.6 46.8516 98.4918C47.0864 98.4492 47.3245 98.4278 47.5632 98.4279C47.9384 98.4383 48.311 98.4926 48.6734 98.5898C49.174 98.7439 49.6298 99.0158 50.0022 99.3824Z" fill="black"/>
<path d="M81.1482 110.794C81.804 110.787 82.4492 110.959 83.0128 111.293C83.5636 111.616 84.0213 112.076 84.3416 112.626C84.6713 113.181 84.8418 113.815 84.8346 114.459C84.8446 115.093 84.6721 115.717 84.3373 116.257C83.9919 116.806 83.5437 117.283 83.0171 117.663C82.4469 118.078 81.8261 118.419 81.1696 118.678C80.4897 118.945 79.7867 119.151 79.0692 119.291C78.3913 119.423 77.7025 119.492 77.0117 119.496C75.5982 119.505 74.1977 119.227 72.8966 118.678C70.3514 117.602 68.3247 115.587 67.2427 113.057C66.6981 111.76 66.4177 110.369 66.4177 108.964C66.4177 107.559 66.6981 106.168 67.2427 104.871C68.3168 102.342 70.3337 100.325 72.8709 99.2417C74.1738 98.6882 75.5777 98.4082 76.9945 98.4193C77.6694 98.4246 78.3424 98.4917 79.0049 98.6195C79.7198 98.7495 80.4203 98.9479 81.0967 99.2119C81.7551 99.4663 82.3775 99.8043 82.9485 100.218C83.4823 100.601 83.9353 101.084 84.2816 101.641C84.6198 102.2 84.7935 102.842 84.7831 103.494C84.7833 103.968 84.6901 104.437 84.5088 104.875C84.3238 105.329 84.0499 105.742 83.7029 106.09L77.6847 112.073C77.9407 112.02 78.1886 111.934 78.4219 111.817C78.6262 111.71 78.8238 111.59 79.0135 111.459C79.2819 111.271 79.5692 111.111 79.8708 110.982C80.2792 110.833 80.714 110.769 81.1482 110.794ZM73.4753 108.237L76.6988 105.029C76.1282 105.02 75.5662 105.167 75.0742 105.455C74.592 105.737 74.1907 106.138 73.9082 106.618C73.6156 107.107 73.4657 107.668 73.4753 108.237Z" fill="black"/>
<path d="M18.3378 112.188C18.9895 112.181 19.6304 112.353 20.1895 112.686C20.7404 113.007 21.2005 113.462 21.5269 114.007C21.8527 114.568 22.0243 115.205 22.0243 115.852C22.0243 116.5 21.8527 117.136 21.5269 117.697C21.2018 118.245 20.7415 118.701 20.1895 119.023C19.63 119.354 18.9891 119.525 18.3378 119.517H4.51374C3.86099 119.526 3.21853 119.355 2.65768 119.023C2.10786 118.7 1.64924 118.244 1.32457 117.697C0.993352 117.139 0.821456 116.501 0.827332 115.852C0.826391 115.653 0.839281 115.453 0.865911 115.256C0.918061 114.977 1.00146 114.706 1.11453 114.446C1.25598 114.097 1.48746 113.594 1.81323 112.916C2.13901 112.239 2.59766 111.335 3.18492 110.181C3.77217 109.026 4.5266 107.538 5.45249 105.732C7.07851 102.573 9.40466 98.0102 12.4309 92.0444H4.51374C3.86124 92.0513 3.21931 91.8803 2.65768 91.5501C2.1086 91.2245 1.65028 90.7674 1.32457 90.2205C0.998718 89.6603 0.827148 89.0246 0.827148 88.3775C0.827148 87.7304 0.998718 87.0947 1.32457 86.5345C1.64924 85.9879 2.10786 85.532 2.65768 85.2092C3.21931 84.879 3.86124 84.708 4.51374 84.7149H18.3378C18.9888 84.7086 19.6292 84.8795 20.1895 85.2092C20.7415 85.5307 21.2018 85.9868 21.5269 86.5345C21.8596 87.0927 22.0316 87.7309 22.0242 88.3796C22.0259 88.5793 22.0116 88.7788 21.9813 88.9762C21.9262 89.251 21.8429 89.5195 21.7327 89.7774C21.5955 90.1268 21.364 90.6381 21.0383 91.3114C20.7125 91.9847 20.2538 92.8966 19.6666 94.0557C19.0793 95.2148 18.3206 96.6935 17.399 98.4917C15.773 101.662 13.4468 106.23 10.4206 112.196L18.3378 112.188Z" fill="white"/>
<path d="M31.8274 119.491C30.4103 119.501 29.0064 119.22 27.7038 118.665C25.1603 117.584 23.1359 115.567 22.0541 113.036C21.5107 111.74 21.231 110.35 21.231 108.947C21.231 107.543 21.5107 106.154 22.0541 104.858C23.1417 102.33 25.1707 100.317 27.7166 99.2417C29.0206 98.6989 30.4202 98.4194 31.8338 98.4194C33.2475 98.4194 34.6471 98.6989 35.951 99.2417C37.2131 99.7722 38.359 100.542 39.3245 101.509C40.2932 102.472 41.066 103.612 41.6007 104.867C42.1468 106.162 42.428 107.553 42.428 108.958C42.428 110.362 42.1468 111.753 41.6007 113.048C40.5137 115.578 38.4869 117.593 35.9425 118.673C34.6414 119.223 33.2409 119.501 31.8274 119.491ZM31.8274 105.749C31.2599 105.743 30.7014 105.89 30.2114 106.175C29.7291 106.457 29.3266 106.856 29.0412 107.334C28.7547 107.824 28.6038 108.38 28.6038 108.947C28.6038 109.513 28.7547 110.07 29.0412 110.56C29.3264 111.039 29.729 111.44 30.2114 111.723C30.7033 112.008 31.2624 112.158 31.8317 112.158C32.401 112.158 32.9601 112.008 33.452 111.723C33.9323 111.438 34.3331 111.038 34.6179 110.56C34.9044 110.07 35.0553 109.513 35.0553 108.947C35.0553 108.38 34.9044 107.824 34.6179 107.334C34.3275 106.856 33.9206 106.459 33.4349 106.179C32.9479 105.894 32.3925 105.745 31.8274 105.749Z" fill="white"/>
<path d="M50.0022 99.3824C51.334 98.766 52.7813 98.435 54.2501 98.4108H54.3959C55.7503 98.4069 57.0925 98.6645 58.3481 99.1693C59.6106 99.6732 60.7655 100.411 61.7516 101.343C62.7639 102.296 63.5768 103.438 64.1434 104.705C64.7403 106.046 65.04 107.499 65.0222 108.966V115.835C65.0286 116.483 64.8566 117.119 64.5249 117.676C64.2016 118.225 63.7427 118.683 63.1918 119.006C62.6283 119.33 61.9889 119.5 61.3379 119.5C60.687 119.5 60.0475 119.33 59.484 119.006C58.9328 118.682 58.4728 118.224 58.1466 117.676C57.8149 117.119 57.643 116.483 57.6494 115.835V108.958C57.6583 108.389 57.51 107.829 57.2207 107.338C56.9356 106.861 56.5348 106.463 56.0548 106.179C55.5626 105.897 55.0046 105.749 54.4366 105.749C53.8686 105.749 53.3106 105.897 52.8185 106.179C52.3359 106.462 51.9321 106.861 51.6439 107.338C51.3547 107.829 51.2064 108.389 51.2153 108.958V115.827C51.2237 116.474 51.0516 117.111 50.7181 117.668C50.3952 118.215 49.938 118.673 49.3892 118.997C48.8249 119.321 48.1848 119.492 47.5332 119.492C46.8816 119.492 46.2414 119.321 45.6771 118.997C45.1262 118.674 44.6673 118.216 44.344 117.668C44.0092 117.112 43.8356 116.475 43.8425 115.827V102.084C43.8389 101.489 43.9863 100.903 44.2711 100.38C44.5375 99.8925 44.9094 99.4704 45.3599 99.1438C45.8042 98.8224 46.313 98.6 46.8516 98.4918C47.0864 98.4492 47.3245 98.4278 47.5632 98.4279C47.9384 98.4383 48.311 98.4926 48.6734 98.5898C49.174 98.7439 49.6298 99.0158 50.0022 99.3824Z" fill="white"/>
<path d="M81.1482 110.794C81.804 110.787 82.4492 110.959 83.0128 111.293C83.5636 111.616 84.0213 112.076 84.3416 112.626C84.6713 113.181 84.8418 113.815 84.8346 114.459C84.8446 115.093 84.6721 115.717 84.3373 116.257C83.9919 116.806 83.5437 117.283 83.0171 117.663C82.4469 118.078 81.8261 118.419 81.1696 118.678C80.4897 118.945 79.7867 119.151 79.0692 119.291C78.3913 119.423 77.7025 119.492 77.0117 119.496C75.5982 119.505 74.1977 119.227 72.8966 118.678C70.3514 117.602 68.3247 115.587 67.2427 113.057C66.6981 111.76 66.4177 110.369 66.4177 108.964C66.4177 107.559 66.6981 106.168 67.2427 104.871C68.3168 102.342 70.3337 100.325 72.8709 99.2417C74.1738 98.6882 75.5777 98.4082 76.9945 98.4193C77.6694 98.4246 78.3424 98.4917 79.0049 98.6195C79.7198 98.7495 80.4203 98.9479 81.0967 99.2119C81.7551 99.4663 82.3775 99.8043 82.9485 100.218C83.4823 100.601 83.9353 101.084 84.2816 101.641C84.6198 102.2 84.7935 102.842 84.7831 103.494C84.7833 103.968 84.6901 104.437 84.5088 104.875C84.3238 105.329 84.0499 105.742 83.7029 106.09L77.6847 112.073C77.9407 112.02 78.1886 111.934 78.4219 111.817C78.6262 111.71 78.8238 111.59 79.0135 111.459C79.2819 111.271 79.5692 111.111 79.8708 110.982C80.2792 110.833 80.714 110.769 81.1482 110.794ZM73.4753 108.237L76.6988 105.029C76.1282 105.02 75.5662 105.167 75.0742 105.455C74.592 105.737 74.1907 106.138 73.9082 106.618C73.6156 107.107 73.4657 107.668 73.4753 108.237Z" fill="white"/>
<path d="M110.811 57.2806C109.705 71.3344 108.227 79.4309 106.378 81.5701C104.53 83.7092 102.722 84.7859 100.956 84.8001C99.1843 84.8001 97.3754 83.7291 95.5293 81.5871C93.6832 79.4451 92.2058 71.3486 91.097 57.2976L88.6109 12.0936C88.5966 10.6009 88.9165 9.12367 89.5474 7.76903C90.1783 6.41438 91.1045 5.21621 92.2587 4.26131C94.635 2.11992 97.7498 0.970778 100.956 1.05254C104.185 0.982016 107.321 2.12832 109.735 4.26131C110.866 5.22847 111.771 6.42986 112.387 7.78134C113.002 9.13282 113.313 10.6017 113.297 12.0851L110.811 57.2806ZM92.2587 116.402C89.9141 113.905 88.6101 110.616 88.6101 107.2C88.6101 103.784 89.9141 100.495 92.2587 97.9974C93.3641 96.7751 94.7188 95.8009 96.2324 95.1396C97.7461 94.4783 99.3842 94.1451 101.037 94.1622C102.685 94.1429 104.317 94.4753 105.824 95.137C107.331 95.7986 108.678 96.774 109.773 97.9974C112.092 100.508 113.378 103.792 113.378 107.2C113.378 110.608 112.092 113.892 109.773 116.402C108.671 117.614 107.322 118.578 105.816 119.232C104.31 119.885 102.681 120.212 101.037 120.19C99.3882 120.21 97.7535 119.882 96.2406 119.229C94.7276 118.577 93.3706 117.613 92.2587 116.402Z" fill="black"/>
<path d="M110.811 57.2806C109.705 71.3344 108.227 79.4309 106.378 81.5701C104.53 83.7092 102.722 84.7859 100.956 84.8001C99.1843 84.8001 97.3754 83.7291 95.5293 81.5871C93.6832 79.4451 92.2058 71.3486 91.097 57.2976L88.6109 12.0936C88.5966 10.6009 88.9165 9.12367 89.5474 7.76903C90.1783 6.41438 91.1045 5.21621 92.2587 4.26131C94.635 2.11992 97.7498 0.970778 100.956 1.05254C104.185 0.982016 107.321 2.12832 109.735 4.26131C110.866 5.22847 111.771 6.42986 112.387 7.78134C113.002 9.13282 113.313 10.6017 113.297 12.0851L110.811 57.2806ZM92.2587 116.402C89.9141 113.905 88.6101 110.616 88.6101 107.2C88.6101 103.784 89.9141 100.495 92.2587 97.9974C93.3641 96.7751 94.7188 95.8009 96.2324 95.1396C97.7461 94.4783 99.3842 94.1451 101.037 94.1622C102.685 94.1429 104.317 94.4753 105.824 95.137C107.331 95.7986 108.678 96.774 109.773 97.9974C112.092 100.508 113.378 103.792 113.378 107.2C113.378 110.608 112.092 113.892 109.773 116.402C108.671 117.614 107.322 118.578 105.816 119.232C104.31 119.885 102.681 120.212 101.037 120.19C99.3882 120.21 97.7535 119.882 96.2406 119.229C94.7276 118.577 93.3706 117.613 92.2587 116.402Z" fill="white"/>
<path d="M100.172 121C107.806 121 113.996 114.847 113.996 107.257C113.996 99.6674 107.806 93.5145 100.172 93.5145C92.5369 93.5145 86.3477 99.6674 86.3477 107.257C86.3477 114.847 92.5369 121 100.172 121Z" fill="#08F2E7"/>
<g opacity="0.7">
<path opacity="0.7" d="M104.827 102.651C106.356 102.651 107.596 101.418 107.596 99.898C107.596 98.3776 106.356 97.1451 104.827 97.1451C103.298 97.1451 102.058 98.3776 102.058 99.898C102.058 101.418 103.298 102.651 104.827 102.651Z" fill="white"/>
<path opacity="0.7" d="M104.827 12.4047C106.356 12.4047 107.596 11.1722 107.596 9.65186C107.596 8.13152 106.356 6.89905 104.827 6.89905C103.298 6.89905 102.058 8.13152 102.058 9.65186C102.058 11.1722 103.298 12.4047 104.827 12.4047Z" fill="white"/>
</g>
</svg>
